<?xml version="1.0" encoding="iso-8859-1"?>
<!-- Uploaded to: SVG Repo, www.svgrepo.com, Generator: SVG Repo Mixer Tools -->
<svg height="800px" width="800px" version="1.1" id="Layer_1" xmlns="http://www.w3.org/2000/svg" xmlns:xlink="http://www.w3.org/1999/xlink" 
	 viewBox="0 0 512 512" xml:space="preserve">
<path style="fill:#51B3DA;" d="M417.141,512H91.121c-11.739,0-21.257-9.517-21.257-21.257V21.257C69.864,9.517,79.381,0,91.121,0
	h326.02c27.349,0,49.599,22.25,49.599,49.599v412.802C466.74,489.75,444.49,512,417.141,512z"/>
<path style="fill:#238CC5;" d="M417.141,0H268.303v512h148.838c27.349,0,49.599-22.25,49.599-49.599V49.599
	C466.74,22.25,444.49,0,417.141,0z"/>
<g>
	<path style="fill:#FFDA79;" d="M268.303,276.983c-50.785,0-92.101-41.316-92.101-92.101c0-50.784,41.316-92.101,92.101-92.101
		c50.784,0,92.101,41.316,92.101,92.101C360.403,235.667,319.086,276.983,268.303,276.983z"/>
	<path style="fill:#FFDA79;" d="M331.343,361.848H205.262c-11.739,0-21.257-9.517-21.257-21.257
		c0-11.739,9.517-21.257,21.257-21.257h126.081c11.739,0,21.257,9.517,21.257,21.257C352.6,352.332,343.083,361.848,331.343,361.848
		z"/>
	<path style="fill:#FFDA79;" d="M331.343,419.219H205.262c-11.739,0-21.257-9.517-21.257-21.257
		c0-11.739,9.517-21.257,21.257-21.257h126.081c11.739,0,21.257,9.517,21.257,21.257C352.6,409.701,343.083,419.219,331.343,419.219
		z"/>
</g>
<g>
	<path style="fill:#36495E;" d="M115.726,107.534H66.517c-11.739,0-21.257-9.517-21.257-21.257S54.777,65.02,66.517,65.02h49.209
		c11.739,0,21.257,9.517,21.257,21.257S127.465,107.534,115.726,107.534z"/>
	<path style="fill:#36495E;" d="M115.726,192.396H66.517c-11.739,0-21.257-9.517-21.257-21.257c0-11.739,9.517-21.257,21.257-21.257
		h49.209c11.739,0,21.257,9.517,21.257,21.257C136.983,182.879,127.465,192.396,115.726,192.396z"/>
	<path style="fill:#36495E;" d="M115.726,277.256H66.517c-11.739,0-21.257-9.517-21.257-21.257s9.517-21.257,21.257-21.257h49.209
		c11.739,0,21.257,9.517,21.257,21.257C136.983,267.74,127.465,277.256,115.726,277.256z"/>
	<path style="fill:#36495E;" d="M115.726,362.117H66.517c-11.739,0-21.257-9.517-21.257-21.257c0-11.739,9.517-21.257,21.257-21.257
		h49.209c11.739,0,21.257,9.517,21.257,21.257C136.983,352.6,127.465,362.117,115.726,362.117z"/>
	<path style="fill:#36495E;" d="M115.726,446.978H66.517c-11.739,0-21.257-9.517-21.257-21.257s9.517-21.257,21.257-21.257h49.209
		c11.739,0,21.257,9.517,21.257,21.257C136.983,437.462,127.465,446.978,115.726,446.978z"/>
</g>
<g>
	<path style="fill:#FFD155;" d="M268.303,92.781v184.201c50.784,0,92.101-41.316,92.101-92.101
		C360.403,134.097,319.086,92.781,268.303,92.781z"/>
	<path style="fill:#FFD155;" d="M331.343,319.334h-63.04v42.514h63.04c11.739,0,21.257-9.517,21.257-21.257
		C352.6,328.852,343.083,319.334,331.343,319.334z"/>
	<path style="fill:#FFD155;" d="M331.343,376.705h-63.04v42.513h63.04c11.739,0,21.257-9.517,21.257-21.257
		C352.6,386.222,343.083,376.705,331.343,376.705z"/>
</g>
</svg>